{
    "asset" : {
        "generator" : "Khronos glTF Blender I/O v3.3.32",
        "version" : "2.0"
    },
    "scene" : 0,
    "scenes" : [
        {
            "name" : "Scene",
            "nodes" : [
                0,
                1,
                2,
                3,
                4
            ]
        }
    ],
    "nodes" : [
        {
            "mesh" : 0,
            "name" : "Sphere",
            "translation" : [
                0,
                0.15000000596046448,
                0
            ]
        },
        {
            "mesh" : 1,
            "name" : "Sphere.001",
            "scale" : [
                2,
                0.5,
                2
            ]
        },
        {
            "mesh" : 2,
            "name" : "Cylinder",
            "rotation" : [
                -0.13781869411468506,
                0.019369153305888176,
                -0.13781869411468506,
                0.9806309342384338
            ],
            "scale" : [
                0.5,
                0.30000001192092896,
                0.5
            ],
            "translation" : [
                -1.0971322059631348,
                -0.5,
                0.817673921585083
            ]
        },
        {
            "mesh" : 3,
            "name" : "Cylinder.001",
            "rotation" : [
                0.13917309045791626,
                0,
                0,
                0.9902681112289429
            ],
            "scale" : [
                0.5,
                0.30000001192092896,
                0.5
            ],
            "translation" : [
                -0.008708812296390533,
                -0.5105555057525635,
                -1.2524497509002686
            ]
        },
        {
            "mesh" : 4,
            "name" : "Cylinder.002",
            "rotation" : [
                -0.13781869411468506,
                -0.019369153305888176,
                0.13781869411468506,
                0.9806309342384338
            ],
            "scale" : [
                0.5,
                0.30000001192092896,
                0.5
            ],
            "translation" : [
                1.099244236946106,
                -0.4749014377593994,
                0.8131388425827026
            ]
        }
    ],
    "materials" : [
        {
            "doubleSided" : true,
            "emissiveFactor" : [
                0.03306841477751732,
                0.3069917559623718,
                0.2818604111671448
            ],
            "name" : "glass",
            "pbrMetallicRoughness" : {
                "baseColorFactor" : [
                    0.021246176213026047,
                    0.21848560869693756,
                    0.8000000715255737,
                    1
                ],
                "metallicFactor" : 0,
                "roughnessFactor" : 0.5
            }
        },
        {
            "doubleSided" : true,
            "name" : "Material.001",
            "pbrMetallicRoughness" : {
                "baseColorFactor" : [
                    0,
                    0.008653609082102776,
                    0.9185730218887329,
                    1
                ],
                "roughnessFactor" : 0.5
            }
        },
        {
            "doubleSided" : true,
            "name" : "Material.002",
            "pbrMetallicRoughness" : {
                "baseColorFactor" : [
                    0.800000011920929,
                    0.800000011920929,
                    0.800000011920929,
                    1
                ],
                "roughnessFactor" : 0.5
            }
        }
    ],
    "meshes" : [
        {
            "name" : "Sphere",
            "primitives" : [
                {
                    "attributes" : {
                        "POSITION" : 0,
                        "NORMAL" : 1,
                        "TEXCOORD_0" : 2
                    },
                    "indices" : 3,
                    "material" : 0
                }
            ]
        },
        {
            "name" : "Sphere.001",
            "primitives" : [
                {
                    "attributes" : {
                        "POSITION" : 4,
                        "NORMAL" : 5,
                        "TEXCOORD_0" : 6
                    },
                    "indices" : 7,
                    "material" : 1
                }
            ]
        },
        {
            "name" : "Cylinder",
            "primitives" : [
                {
                    "attributes" : {
                        "POSITION" : 8,
                        "NORMAL" : 9,
                        "TEXCOORD_0" : 10
                    },
                    "indices" : 11
                }
            ]
        },
        {
            "name" : "Cylinder.001",
            "primitives" : [
                {
                    "attributes" : {
                        "POSITION" : 12,
                        "NORMAL" : 13,
                        "TEXCOORD_0" : 14
                    },
                    "indices" : 11
                }
            ]
        },
        {
            "name" : "Cylinder.002",
            "primitives" : [
                {
                    "attributes" : {
                        "POSITION" : 15,
                        "NORMAL" : 16,
                        "TEXCOORD_0" : 17
                    },
                    "indices" : 11,
                    "material" : 2
                }
            ]
        }
    ],
    "accessors" : [
        {
            "bufferView" : 0,
            "componentType" : 5126,
            "count" : 296,
            "max" : [
                0.9999996423721313,
                1,
                0.9999992847442627
            ],
            "min" : [
                -0.9999991655349731,
                0,
                -0.9999995231628418
            ],
            "type" : "VEC3"
        },
        {
            "bufferView" : 1,
            "componentType" : 5126,
            "count" : 296,
            "type" : "VEC3"
        },
        {
            "bufferView" : 2,
            "componentType" : 5126,
            "count" : 296,
            "type" : "VEC2"
        },
        {
            "bufferView" : 3,
            "componentType" : 5123,
            "count" : 1530,
            "type" : "SCALAR"
        },
        {
            "bufferView" : 4,
            "componentType" : 5126,
            "count" : 559,
            "max" : [
                0.9999997019767761,
                1,
                0.9999993443489075
            ],
            "min" : [
                -0.9999990463256836,
                -1,
                -1
            ],
            "type" : "VEC3"
        },
        {
            "bufferView" : 5,
            "componentType" : 5126,
            "count" : 559,
            "type" : "VEC3"
        },
        {
            "bufferView" : 6,
            "componentType" : 5126,
            "count" : 559,
            "type" : "VEC2"
        },
        {
            "bufferView" : 7,
            "componentType" : 5123,
            "count" : 2880,
            "type" : "SCALAR"
        },
        {
            "bufferView" : 8,
            "componentType" : 5126,
            "count" : 2176,
            "max" : [
                0.37543439865112305,
                1,
                0.36799347400665283
            ],
            "min" : [
                -0.36637020111083984,
                -1.704700231552124,
                -0.3738114535808563
            ],
            "type" : "VEC3"
        },
        {
            "bufferView" : 9,
            "componentType" : 5126,
            "count" : 2176,
            "type" : "VEC3"
        },
        {
            "bufferView" : 10,
            "componentType" : 5126,
            "count" : 2176,
            "type" : "VEC2"
        },
        {
            "bufferView" : 11,
            "componentType" : 5123,
            "count" : 3252,
            "type" : "SCALAR"
        },
        {
            "bufferView" : 12,
            "componentType" : 5126,
            "count" : 2176,
            "max" : [
                0.37543439865112305,
                1,
                0.36799347400665283
            ],
            "min" : [
                -0.36637020111083984,
                -1.704700231552124,
                -0.3738114535808563
            ],
            "type" : "VEC3"
        },
        {
            "bufferView" : 13,
            "componentType" : 5126,
            "count" : 2176,
            "type" : "VEC3"
        },
        {
            "bufferView" : 14,
            "componentType" : 5126,
            "count" : 2176,
            "type" : "VEC2"
        },
        {
            "bufferView" : 15,
            "componentType" : 5126,
            "count" : 2176,
            "max" : [
                0.37543439865112305,
                1,
                0.36799347400665283
            ],
            "min" : [
                -0.36637020111083984,
                -1.704700231552124,
                -0.3738114535808563
            ],
            "type" : "VEC3"
        },
        {
            "bufferView" : 16,
            "componentType" : 5126,
            "count" : 2176,
            "type" : "VEC3"
        },
        {
            "bufferView" : 17,
            "componentType" : 5126,
            "count" : 2176,
            "type" : "VEC2"
        }
    ],
    "bufferViews" : [
        {
            "buffer" : 0,
            "byteLength" : 3552,
            "byteOffset" : 0,
            "target" : 34962
        },
        {
            "buffer" : 0,
            "byteLength" : 3552,
            "byteOffset" : 3552,
            "target" : 34962
        },
        {
            "buffer" : 0,
            "byteLength" : 2368,
            "byteOffset" : 7104,
            "target" : 34962
        },
        {
            "buffer" : 0,
            "byteLength" : 3060,
            "byteOffset" : 9472,
            "target" : 34963
        },
        {
            "buffer" : 0,
            "byteLength" : 6708,
            "byteOffset" : 12532,
            "target" : 34962
        },
        {
            "buffer" : 0,
            "byteLength" : 6708,
            "byteOffset" : 19240,
            "target" : 34962
        },
        {
            "buffer" : 0,
            "byteLength" : 4472,
            "byteOffset" : 25948,
            "target" : 34962
        },
        {
            "buffer" : 0,
            "byteLength" : 5760,
            "byteOffset" : 30420,
            "target" : 34963
        },
        {
            "buffer" : 0,
            "byteLength" : 26112,
            "byteOffset" : 36180,
            "target" : 34962
        },
        {
            "buffer" : 0,
            "byteLength" : 26112,
            "byteOffset" : 62292,
            "target" : 34962
        },
        {
            "buffer" : 0,
            "byteLength" : 17408,
            "byteOffset" : 88404,
            "target" : 34962
        },
        {
            "buffer" : 0,
            "byteLength" : 6504,
            "byteOffset" : 105812,
            "target" : 34963
        },
        {
            "buffer" : 0,
            "byteLength" : 26112,
            "byteOffset" : 112316,
            "target" : 34962
        },
        {
            "buffer" : 0,
            "byteLength" : 26112,
            "byteOffset" : 138428,
            "target" : 34962
        },
        {
            "buffer" : 0,
            "byteLength" : 17408,
            "byteOffset" : 164540,
            "target" : 34962
        },
        {
            "buffer" : 0,
            "byteLength" : 26112,
            "byteOffset" : 181948,
            "target" : 34962
        },
        {
            "buffer" : 0,
            "byteLength" : 26112,
            "byteOffset" : 208060,
            "target" : 34962
        },
        {
            "buffer" : 0,
            "byteLength" : 17408,
            "byteOffset" : 234172,
            "target" : 34962
        }
    ],
    "buffers" : [
        {
            "byteLength" : 251580,
            "uri" : "UFO.bin"
        }
    ]
}
